<?xml version="1.0" encoding="UTF-8" standalone="no"?><!DOCTYPE svg PUBLIC "-//W3C//DTD SVG 1.1//EN" "http://www.w3.org/Graphics/SVG/1.1/DTD/svg11.dtd"><svg  viewBox="0 0 210 112" version="1.1" xmlns="http://www.w3.org/2000/svg" xmlns:xlink="http://www.w3.org/1999/xlink" xml:space="preserve" style="fill-rule:evenodd;clip-rule:evenodd;stroke-linejoin:round;stroke-miterlimit:1.41421;"><path d="M166.045,112.5l-23.841,0l26.373,-67.5l-23.788,0l8.791,-22.5c0,0 0,0 0,0c14.327,0 27.171,-8.66 32.295,-21.774c0.182,-0.465 0.284,-0.726 0.284,-0.726l23.841,0l-8.791,22.5l-8.791,22.5l-26.373,67.5Zm-127.154,0l-23.841,0l8.791,-22.5l-23.841,0l8.791,-22.5l23.841,0l8.791,-22.5l-23.841,0l8.791,-22.5l23.841,0l8.791,-22.5l23.842,0l-8.791,22.5l23.841,0l8.791,-22.5l23.841,0l-8.791,22.5l23.841,0l-8.791,22.5l-23.841,0l-8.791,22.5l23.841,0l-8.791,22.5l-23.841,0l-8.791,22.5l-23.841,0l8.791,-22.5l-23.841,0l-8.792,22.5Zm50.215,-67.5l-23.841,0l-8.791,22.5l23.841,0l8.791,-22.5Z"/></svg>