<?xml version="1.0" encoding="UTF-8" standalone="no"?><!DOCTYPE svg PUBLIC "-//W3C//DTD SVG 1.1//EN" "http://www.w3.org/Graphics/SVG/1.1/DTD/svg11.dtd"><svg viewBox="0 0 135 113" version="1.1" xmlns="http://www.w3.org/2000/svg" xmlns:xlink="http://www.w3.org/1999/xlink" xml:space="preserve" style="fill-rule:evenodd;clip-rule:evenodd;stroke-linejoin:round;stroke-miterlimit:1.41421;"><path d="M19.682,112.5c-12.161,-11.932 -19.682,-28.383 -19.682,-46.537c0,-36.406 30.246,-65.963 67.5,-65.963c37.254,0 67.5,29.557 67.5,65.963c0,18.154 -7.521,34.605 -19.682,46.537l-47.818,0c26.284,0 47.622,-20.853 47.622,-46.537c0,-25.685 -21.339,-46.538 -47.622,-46.538c-26.283,0 -47.622,20.853 -47.622,46.538c0,25.684 21.338,46.537 47.622,46.537l-47.818,0Zm47.818,-74.492c15.788,0 28.606,12.526 28.606,27.955c0,15.428 -12.818,27.954 -28.606,27.954c-15.788,0 -28.606,-12.526 -28.606,-27.954c0,-15.429 12.818,-27.955 28.606,-27.955Z" /></svg>